<svg data-v-423bf9ae="" xmlns="http://www.w3.org/2000/svg" viewBox="0 0 499 90" class="iconLeftSlogan"><!----><!----><!----><g data-v-423bf9ae="" id="60dce76f-1d4b-44b2-bce2-f9df3dab32cf" fill="black" transform="matrix(6.079027426108357,0,0,6.079027426108357,171.1432887272472,-4.863222669005431)"><path d="M9.32 10.50L7.98 10.50L6.96 8.15L2.55 8.15L1.53 10.50L0.17 10.50L3.99 1.36L5.47 1.36L9.32 10.50ZM4.69 2.69L3.04 6.97L6.45 6.97L4.69 2.69ZM14.25 3.19L14.25 3.19L14.25 3.19Q15.65 3.19 16.30 4.02L16.30 4.02L16.30 4.02Q16.94 4.84 16.94 6.37L16.94 6.37L16.94 10.50L15.61 10.50L15.61 6.73L15.61 6.73Q15.61 5.46 15.29 4.86L15.29 4.86L15.29 4.86Q14.97 4.26 14.15 4.26L14.15 4.26L14.15 4.26Q13.59 4.26 13.18 4.47L13.18 4.47L13.18 4.47Q12.77 4.68 12.49 5.06L12.49 5.06L12.49 5.06Q12.21 5.45 12.07 5.99L12.07 5.99L12.07 5.99Q11.93 6.52 11.93 7.18L11.93 7.18L11.93 10.50L10.61 10.50L10.61 3.36L11.72 3.36L11.93 4.49L11.93 4.49Q12.26 3.92 12.91 3.56L12.91 3.56L12.91 3.56Q13.55 3.19 14.25 3.19ZM23.04 5.12L21.15 5.12L21.15 8.46L21.15 8.46Q21.15 9.59 22.12 9.59L22.12 9.59L22.12 9.59Q22.53 9.59 22.95 9.38L22.95 9.38L22.95 10.40L22.95 10.40Q22.37 10.67 21.73 10.67L21.73 10.67L21.73 10.67Q20.80 10.67 20.29 10.14L20.29 10.14L20.29 10.14Q19.78 9.62 19.78 8.60L19.78 8.60L19.78 5.12L18.51 5.12L18.51 4.05L19.78 4.05L19.78 1.95L21.15 1.62L21.15 4.05L23.04 4.05L23.04 5.12ZM33.85 9.27L33.85 10.50L28.71 10.50L28.71 1.34L30.11 1.34L30.11 9.27L33.85 9.27ZM36.79 3.36L36.79 10.50L35.48 10.50L35.48 3.36L36.79 3.36ZM36.97 1.65L36.97 1.65L36.97 1.65Q36.97 2.02 36.72 2.27L36.72 2.27L36.72 2.27Q36.47 2.52 36.12 2.52L36.12 2.52L36.12 2.52Q35.76 2.52 35.50 2.27L35.50 2.27L35.50 2.27Q35.25 2.02 35.25 1.65L35.25 1.65L35.25 1.65Q35.25 1.30 35.50 1.05L35.50 1.05L35.50 1.05Q35.76 0.80 36.12 0.80L36.12 0.80L36.12 0.80Q36.47 0.80 36.72 1.05L36.72 1.05L36.72 1.05Q36.97 1.30 36.97 1.65ZM42.85 3.19L42.85 3.19L42.85 3.19Q44.25 3.19 44.90 4.02L44.90 4.02L44.90 4.02Q45.54 4.84 45.54 6.37L45.54 6.37L45.54 10.50L44.21 10.50L44.21 6.73L44.21 6.73Q44.21 5.46 43.89 4.86L43.89 4.86L43.89 4.86Q43.57 4.26 42.76 4.26L42.76 4.26L42.76 4.26Q42.20 4.26 41.78 4.47L41.78 4.47L41.78 4.47Q41.37 4.68 41.09 5.06L41.09 5.06L41.09 5.06Q40.81 5.45 40.67 5.99L40.67 5.99L40.67 5.99Q40.53 6.52 40.53 7.18L40.53 7.18L40.53 10.50L39.21 10.50L39.21 3.36L40.32 3.36L40.53 4.49L40.53 4.49Q40.87 3.92 41.51 3.56L41.51 3.56L41.51 3.56Q42.15 3.19 42.85 3.19ZM53.68 3.36L51.17 6.52L53.77 10.50L52.15 10.50L50.18 7.21L49.10 7.21L49.10 10.50L47.78 10.50L47.78 1.62L49.10 1.62L49.10 5.81L50.18 5.81L52.16 3.36L53.68 3.36Z"></path></g><!----><g data-v-423bf9ae="" id="0e61a261-4d5d-4719-84d5-e2586fb62d91" transform="matrix(1.5442165187267252,0,0,1.5442165187267252,-0.44265423447924945,-31.356333531537715)" stroke="none" fill="black"><path d="M98.479 32.524c-.316.007-7.81.214-14.223 3.062-6.164 2.739-8.887 2.788-11.135 2.603a.685.685 0 0 0-.328.069 10.047 10.047 0 0 0-1.394-.884c7.011-10.117 15.19-15.146 15.274-15.196a.706.706 0 0 0-.732-1.209c-.35.211-8.635 5.291-15.862 15.82-.281-.104-.553-.221-.85-.304-4.231-1.188-8.334.249-9.164 3.207-.242.863-.171 1.761.144 2.629-1.638-1.27-4.341-1.888-7.32-1.557-.263-.791-.532-1.618-.815-2.495-.425-1.32-.633-1.964-.737-2.201-.081-.188-.14-.371-.193-.533-.147-.453-.333-1.015-.931-1.094-.649-.076-1.145.559-1.749 1.489-.903 1.386-1.446 4.695-1.73 7.03a8.377 8.377 0 0 0-1.753 1.591l-5.294-6.122-.163-.138c-.703-.433-1.323-.527-1.839-.287-.521.242-.718.737-.787.995l-4.869 8.583c-2.217-1.671-3.622-2.521-4.179-2.521-.396 0-1.221 0-16.686 19.254-.026.046-2.687 4.556-9.741 3.886a.715.715 0 0 0-.769.638.708.708 0 0 0 .639.77c.536.05 1.05.073 1.542.073 6.807 0 9.436-4.456 9.493-4.572C17.64 58.5 26.33 47.925 27.957 46.533c.558.257 1.89 1.187 3.364 2.297l-1.352 2.382c-3.81 3.355-6.551 8.127-6.619 11.669l-.687 1.21c-.008.022-.804 2.288-4.73 1.428a.71.71 0 0 0-.842.538.707.707 0 0 0 .539.842c.727.16 1.376.229 1.955.229 2.563 0 3.718-1.35 4.148-2.052.125.286.271.558.459.804 2.66 3.479 10.842 1.365 16.537-2.984 2.71-2.071 4.675-4.594 5.716-7.046.876 4.557 1.938 11.692 2.779 18.441l.075.241c.479.914 2.127 3.943 3.201 4.529a.702.702 0 0 0 .959-.281.705.705 0 0 0-.281-.957c-.458-.25-1.681-2.161-2.569-3.834-.663-5.312-2.077-15.927-3.372-21.064a7.159 7.159 0 0 0 .005-1.499c.864.33 1.854.546 2.922.631a.69.69 0 0 0 .507.028 14.18 14.18 0 0 0 2.675-.15c1.756 3.689 4.835 10.242 5.444 12.072.081.242.149.468.215.681.688 2.275 1.419 3.057 5.686 3.057.787 0 1.697-.026 2.751-.077a.706.706 0 0 0 .674-.737c-.02-.39-.377-.731-.739-.672-6.326.292-6.478-.187-7.019-1.98a34.904 34.904 0 0 0-.225-.718c-.623-1.864-3.566-8.142-5.355-11.904.264-.066.521-.141.778-.22.459.774.863 1.226 1.237 1.395.151.066.307.102.46.102.142 0 .281-.03.409-.087a15.9 15.9 0 0 1 1.002-.409.703.703 0 0 0 .599-.183l.454-.452-.329-.497c-.369-.561-.965-.337-2.111.168-.12-.102-.258-.28-.411-.522 1.215-.517 2.262-1.176 3.077-1.924 2.825-.418 5.118-.647 5.654-.468.186.063.319.113.415.151a1.836 1.836 0 0 0-.002.756c.106.531 4.558 13.479 7.406 15.109 1.007.573 1.791.762 2.478.76.617 0 1.158-.15 1.713-.305.548-.153 1.116-.312 1.861-.363a.705.705 0 0 0 .655-.755c-.029-.392-.415-.687-.755-.656-.891.064-1.554.251-2.14.414-1.065.294-1.71.478-3.11-.322-2.053-1.172-6.457-12.876-6.724-14.16-.024-.12-.006-.185.031-.305.324-1.094-.623-1.41-1.383-1.663-.699-.233-2.644-.081-4.791.197.491-.864.696-1.777.531-2.676-.004-.022-.013-.042-.017-.063 1.105 1.104 2.645 2.012 4.456 2.521.303.085 2.55.378 5.602.017 2.255-.267 2.689-2.404 5.633-2.227l-1.453-.748 1.944-.295-1.649-.941c-1.044-1.043-.485-.763-1.056-1.634a6.105 6.105 0 0 0-.981-1.715c.095.002.179.013.277.013 2.204 0 5.108-.486 10.287-2.789 6.151-2.733 13.607-2.94 13.684-2.942a.705.705 0 0 0 .688-.723c-.006-.391-.353-.654-.718-.692zm-48.831 4.177c.103-.156.191-.287.267-.395.039.107.082.218.13.328.079.183.36 1.056.686 2.067.261.81.507 1.563.747 2.293-1.16.242-2.236.607-3.194 1.069.3-2.117.759-4.433 1.364-5.362zm-11.47 2.908l.092-.32c.01 0 .133-.011.424.155l5.502 6.36a4.065 4.065 0 0 0-.329 1.208c-2.71-1.045-6.616-.436-10.379 1.697l-.331-.259 5.021-8.841z"></path></g><!----><g data-v-423bf9ae="" id="79e35065-17ae-411a-8299-34267353c487" fill="black" transform="matrix(1.5367805368846201,0,0,1.5367805368846201,170.1481818973077,58.7705741772054)"><path d="M2.72 6.38L2.72 6.38L2.72 9.27L6.19 9.27L6.19 10.50L1.32 10.50L1.32 1.36L6.17 1.36L5.96 2.60L2.72 2.60L2.72 5.14L5.81 5.14L5.81 6.38L2.72 6.38ZM11.94 3.19L11.94 3.19L11.94 3.19Q13.34 3.19 13.99 4.02L13.99 4.02L13.99 4.02Q14.63 4.84 14.63 6.37L14.63 6.37L14.63 10.50L13.30 10.50L13.30 6.73L13.30 6.73Q13.30 5.46 12.98 4.86L12.98 4.86L12.98 4.86Q12.66 4.26 11.84 4.26L11.84 4.26L11.84 4.26Q11.28 4.26 10.87 4.47L10.87 4.47L10.87 4.47Q10.46 4.68 10.18 5.06L10.18 5.06L10.18 5.06Q9.90 5.45 9.76 5.99L9.76 5.99L9.76 5.99Q9.62 6.52 9.62 7.18L9.62 7.18L9.62 10.50L8.30 10.50L8.30 3.36L9.41 3.36L9.62 4.49L9.62 4.49Q9.95 3.92 10.60 3.56L10.60 3.56L10.60 3.56Q11.24 3.19 11.94 3.19ZM20.73 5.12L18.84 5.12L18.84 8.46L18.84 8.46Q18.84 9.59 19.81 9.59L19.81 9.59L19.81 9.59Q20.22 9.59 20.64 9.38L20.64 9.38L20.64 10.40L20.64 10.40Q20.06 10.67 19.42 10.67L19.42 10.67L19.42 10.67Q18.49 10.67 17.98 10.14L17.98 10.14L17.98 10.14Q17.47 9.62 17.47 8.60L17.47 8.60L17.47 5.12L16.20 5.12L16.20 4.05L17.47 4.05L17.47 1.95L18.84 1.62L18.84 4.05L20.73 4.05L20.73 5.12ZM25.77 10.67L25.77 10.67L25.77 10.67Q24.57 10.67 23.82 10.31L23.82 10.31L23.82 10.31Q23.07 9.95 22.65 9.39L22.65 9.39L22.65 9.39Q22.23 8.83 22.08 8.14L22.08 8.14L22.08 8.14Q21.92 7.45 21.92 6.78L21.92 6.78L21.92 6.78Q21.92 6.10 22.14 5.46L22.14 5.46L22.14 5.46Q22.36 4.82 22.77 4.31L22.77 4.31L22.77 4.31Q23.18 3.81 23.79 3.50L23.79 3.50L23.79 3.50Q24.39 3.19 25.17 3.19L25.17 3.19L25.17 3.19Q26.11 3.19 26.74 3.52L26.74 3.52L26.74 3.52Q27.37 3.85 27.75 4.38L27.75 4.38L27.75 4.38Q28.13 4.90 28.28 5.54L28.28 5.54L28.28 5.54Q28.43 6.17 28.43 6.78L28.43 6.78L28.43 7.22L23.32 7.22L23.32 7.22Q23.38 7.90 23.63 8.41L23.63 8.41L23.63 8.41Q23.74 8.64 23.91 8.86L23.91 8.86L23.91 8.86Q24.08 9.07 24.33 9.24L24.33 9.24L24.33 9.24Q24.57 9.41 24.89 9.51L24.89 9.51L24.89 9.51Q25.21 9.60 25.63 9.60L25.63 9.60L25.63 9.60Q26.08 9.60 26.48 9.50L26.48 9.50L26.48 9.50Q26.88 9.39 27.19 9.27L27.19 9.27L27.19 9.27Q27.55 9.11 27.86 8.92L27.86 8.92L27.87 10.12L27.87 10.12Q27.87 10.12 27.71 10.21L27.71 10.21L27.71 10.21Q27.55 10.30 27.27 10.40L27.27 10.40L27.27 10.40Q26.99 10.50 26.61 10.58L26.61 10.58L26.61 10.58Q26.22 10.67 25.77 10.67ZM23.32 6.24L27.03 6.24L27.03 6.24Q27.03 5.89 26.93 5.54L26.93 5.54L26.93 5.54Q26.82 5.18 26.60 4.89L26.60 4.89L26.60 4.89Q26.38 4.61 26.03 4.43L26.03 4.43L26.03 4.43Q25.68 4.26 25.17 4.26L25.17 4.26L25.17 4.26Q24.74 4.26 24.40 4.43L24.40 4.43L24.40 4.43Q24.05 4.61 23.81 4.89L23.81 4.89L23.81 4.89Q23.58 5.18 23.45 5.54L23.45 5.54L23.45 5.54Q23.32 5.89 23.32 6.24L23.32 6.24ZM34.19 3.30L34.19 4.47L34.19 4.47Q34.09 4.44 33.98 4.41L33.98 4.41L33.98 4.41Q33.88 4.38 33.76 4.36L33.76 4.36L33.76 4.36Q33.64 4.34 33.53 4.34L33.53 4.34L33.53 4.34Q32.93 4.34 32.54 4.61L32.54 4.61L32.54 4.61Q32.14 4.89 31.92 5.31L31.92 5.31L31.92 5.31Q31.70 5.73 31.61 6.24L31.61 6.24L31.61 6.24Q31.51 6.76 31.51 7.25L31.51 7.25L31.51 10.50L30.20 10.50L30.20 3.36L31.32 3.36L31.47 4.47L31.47 4.47Q31.67 4.12 31.91 3.84L31.91 3.84L31.91 3.84Q32.14 3.57 32.47 3.40L32.47 3.40L32.47 3.40Q32.79 3.23 33.21 3.20L33.21 3.20L33.21 3.20Q33.63 3.16 34.19 3.30L34.19 3.30ZM39.40 10.67L39.40 10.67L39.40 10.67Q38.70 10.67 38.05 10.41L38.05 10.41L38.05 10.41Q37.39 10.15 36.96 9.58L36.96 9.58L36.96 12.40L35.64 12.40L35.64 3.36L36.75 3.36L36.96 4.37L36.96 4.38L36.96 4.38Q37.16 4.05 37.49 3.79L37.49 3.79L37.49 3.79Q37.77 3.57 38.24 3.38L38.24 3.38L38.24 3.38Q38.71 3.19 39.40 3.19L39.40 3.19L39.40 3.19Q40.11 3.19 40.68 3.49L40.68 3.49L40.68 3.49Q41.24 3.79 41.64 4.30L41.64 4.30L41.64 4.30Q42.03 4.80 42.23 5.48L42.23 5.48L42.23 5.48Q42.43 6.16 42.43 6.92L42.43 6.92L42.43 6.92Q42.43 7.67 42.23 8.35L42.23 8.35L42.23 8.35Q42.03 9.03 41.64 9.55L41.64 9.55L41.64 9.55Q41.24 10.07 40.68 10.37L40.68 10.37L40.68 10.37Q40.11 10.67 39.40 10.67ZM39.10 4.26L39.10 4.26L39.10 4.26Q38.68 4.26 38.30 4.42L38.30 4.42L38.30 4.42Q37.91 4.58 37.62 4.91L37.62 4.91L37.62 4.91Q37.32 5.24 37.14 5.74L37.14 5.74L37.14 5.74Q36.96 6.24 36.96 6.92L36.96 6.92L36.96 6.92Q36.96 7.59 37.14 8.09L37.14 8.09L37.14 8.09Q37.32 8.60 37.62 8.93L37.62 8.93L37.62 8.93Q37.91 9.27 38.30 9.44L38.30 9.44L38.30 9.44Q38.68 9.60 39.10 9.60L39.10 9.60L39.10 9.60Q39.49 9.60 39.84 9.44L39.84 9.44L39.84 9.44Q40.19 9.27 40.46 8.93L40.46 8.93L40.46 8.93Q40.73 8.60 40.88 8.09L40.88 8.09L40.88 8.09Q41.03 7.59 41.03 6.92L41.03 6.92L41.03 6.92Q41.03 6.24 40.88 5.74L40.88 5.74L40.88 5.74Q40.73 5.24 40.46 4.91L40.46 4.91L40.46 4.91Q40.19 4.58 39.84 4.42L39.84 4.42L39.84 4.42Q39.49 4.26 39.10 4.26ZM48.19 3.30L48.19 4.47L48.19 4.47Q48.09 4.44 47.98 4.41L47.98 4.41L47.98 4.41Q47.88 4.38 47.76 4.36L47.76 4.36L47.76 4.36Q47.64 4.34 47.53 4.34L47.53 4.34L47.53 4.34Q46.93 4.34 46.54 4.61L46.54 4.61L46.54 4.61Q46.14 4.89 45.92 5.31L45.92 5.31L45.92 5.31Q45.70 5.73 45.61 6.24L45.61 6.24L45.61 6.24Q45.51 6.76 45.51 7.25L45.51 7.25L45.51 10.50L44.20 10.50L44.20 3.36L45.32 3.36L45.47 4.47L45.47 4.47Q45.67 4.12 45.91 3.84L45.91 3.84L45.91 3.84Q46.14 3.57 46.47 3.40L46.47 3.40L46.47 3.40Q46.79 3.23 47.21 3.20L47.21 3.20L47.21 3.20Q47.63 3.16 48.19 3.30L48.19 3.30ZM51.18 3.36L51.18 10.50L49.87 10.50L49.87 3.36L51.18 3.36ZM51.37 1.65L51.37 1.65L51.37 1.65Q51.37 2.02 51.11 2.27L51.11 2.27L51.11 2.27Q50.86 2.52 50.51 2.52L50.51 2.52L50.51 2.52Q50.15 2.52 49.90 2.27L49.90 2.27L49.90 2.27Q49.64 2.02 49.64 1.65L49.64 1.65L49.64 1.65Q49.64 1.30 49.90 1.05L49.90 1.05L49.90 1.05Q50.15 0.80 50.51 0.80L50.51 0.80L50.51 0.80Q50.86 0.80 51.11 1.05L51.11 1.05L51.11 1.05Q51.37 1.30 51.37 1.65ZM57.78 3.91L57.34 4.89L57.34 4.89Q56.52 4.26 55.61 4.26L55.61 4.26L55.61 4.26Q55.10 4.26 54.80 4.46L54.80 4.46L54.80 4.46Q54.50 4.66 54.50 5.15L54.50 5.15L54.50 5.15Q54.50 5.40 54.62 5.58L54.62 5.58L54.62 5.58Q54.74 5.75 54.94 5.88L54.94 5.88L54.94 5.88Q55.13 6.01 55.38 6.10L55.38 6.10L55.38 6.10Q55.64 6.20 55.92 6.30L55.92 6.30L55.92 6.30Q56.28 6.43 56.66 6.58L56.66 6.58L56.66 6.58Q57.04 6.73 57.34 6.98L57.34 6.98L57.34 6.98Q57.64 7.22 57.83 7.59L57.83 7.59L57.83 7.59Q58.02 7.97 58.02 8.54L58.02 8.54L58.02 8.54Q58.02 9.09 57.81 9.49L57.81 9.49L57.81 9.49Q57.61 9.90 57.27 10.16L57.27 10.16L57.27 10.16Q56.92 10.42 56.48 10.54L56.48 10.54L56.48 10.54Q56.04 10.67 55.58 10.67L55.58 10.67L55.58 10.67Q54.88 10.67 54.21 10.39L54.21 10.39L54.21 10.39Q53.54 10.11 53.06 9.58L53.06 9.58L53.48 8.65L53.48 8.65Q53.93 9.10 54.50 9.35L54.50 9.35L54.50 9.35Q55.06 9.60 55.61 9.60L55.61 9.60L55.61 9.60Q56.14 9.60 56.48 9.39L56.48 9.39L56.48 9.39Q56.83 9.17 56.84 8.67L56.84 8.67L56.84 8.67Q56.84 8.40 56.72 8.20L56.72 8.20L56.72 8.20Q56.60 8.01 56.41 7.86L56.41 7.86L56.41 7.86Q56.21 7.71 55.94 7.61L55.94 7.61L55.94 7.61Q55.68 7.50 55.40 7.39L55.40 7.39L55.40 7.39Q55.03 7.27 54.67 7.11L54.67 7.11L54.67 7.11Q54.31 6.96 54.01 6.72L54.01 6.72L54.01 6.72Q53.72 6.48 53.54 6.12L53.54 6.12L53.54 6.12Q53.35 5.75 53.35 5.22L53.35 5.22L53.35 5.22Q53.35 4.68 53.54 4.29L53.54 4.29L53.54 4.29Q53.73 3.91 54.05 3.66L54.05 3.66L54.05 3.66Q54.38 3.42 54.80 3.30L54.80 3.30L54.80 3.30Q55.22 3.19 55.68 3.19L55.68 3.19L55.68 3.19Q56.25 3.19 56.79 3.38L56.79 3.38L56.79 3.38Q57.33 3.57 57.78 3.91L57.78 3.91ZM63.20 10.67L63.20 10.67L63.20 10.67Q61.99 10.67 61.24 10.31L61.24 10.31L61.24 10.31Q60.49 9.95 60.07 9.39L60.07 9.39L60.07 9.39Q59.65 8.83 59.50 8.14L59.50 8.14L59.50 8.14Q59.35 7.45 59.35 6.78L59.35 6.78L59.35 6.78Q59.35 6.10 59.56 5.46L59.56 5.46L59.56 5.46Q59.78 4.82 60.19 4.31L60.19 4.31L60.19 4.31Q60.61 3.81 61.21 3.50L61.21 3.50L61.21 3.50Q61.81 3.19 62.59 3.19L62.59 3.19L62.59 3.19Q63.53 3.19 64.16 3.52L64.16 3.52L64.16 3.52Q64.79 3.85 65.17 4.38L65.17 4.38L65.17 4.38Q65.55 4.90 65.70 5.54L65.70 5.54L65.70 5.54Q65.86 6.17 65.86 6.78L65.86 6.78L65.86 7.22L60.75 7.22L60.75 7.22Q60.80 7.90 61.05 8.41L61.05 8.41L61.05 8.41Q61.17 8.64 61.33 8.86L61.33 8.86L61.33 8.86Q61.50 9.07 61.75 9.24L61.75 9.24L61.75 9.24Q61.99 9.41 62.31 9.51L62.31 9.51L62.31 9.51Q62.64 9.60 63.06 9.60L63.06 9.60L63.06 9.60Q63.50 9.60 63.90 9.50L63.90 9.50L63.90 9.50Q64.30 9.39 64.61 9.27L64.61 9.27L64.61 9.27Q64.97 9.11 65.28 8.92L65.28 8.92L65.30 10.12L65.30 10.12Q65.30 10.12 65.14 10.21L65.14 10.21L65.14 10.21Q64.97 10.30 64.69 10.40L64.69 10.40L64.69 10.40Q64.41 10.50 64.03 10.58L64.03 10.58L64.03 10.58Q63.64 10.67 63.20 10.67ZM60.75 6.24L64.46 6.24L64.46 6.24Q64.46 5.89 64.35 5.54L64.35 5.54L64.35 5.54Q64.25 5.18 64.02 4.89L64.02 4.89L64.02 4.89Q63.80 4.61 63.45 4.43L63.45 4.43L63.45 4.43Q63.10 4.26 62.59 4.26L62.59 4.26L62.59 4.26Q62.16 4.26 61.82 4.43L61.82 4.43L61.82 4.43Q61.47 4.61 61.24 4.89L61.24 4.89L61.24 4.89Q61.00 5.18 60.87 5.54L60.87 5.54L60.87 5.54Q60.75 5.89 60.75 6.24L60.75 6.24ZM71.67 7.21L71.67 7.21L71.67 1.34L73.07 1.34L73.07 7.17L73.07 7.17Q73.07 7.62 73.20 8.02L73.20 8.02L73.20 8.02Q73.33 8.43 73.61 8.74L73.61 8.74L73.61 8.74Q73.89 9.06 74.32 9.25L74.32 9.25L74.32 9.25Q74.75 9.44 75.33 9.44L75.33 9.44L75.33 9.44Q75.92 9.44 76.34 9.25L76.34 9.25L76.34 9.25Q76.76 9.06 77.03 8.74L77.03 8.74L77.03 8.74Q77.31 8.43 77.44 8.02L77.44 8.02L77.44 8.02Q77.57 7.62 77.57 7.17L77.57 7.17L77.57 1.34L78.97 1.34L78.97 7.21L78.97 7.21Q78.97 8.36 78.43 9.13L78.43 9.13L78.43 9.13Q77.88 9.90 77.06 10.28L77.06 10.28L77.06 10.28Q76.23 10.67 75.28 10.67L75.28 10.67L75.28 10.67Q74.33 10.67 73.51 10.28L73.51 10.28L73.51 10.28Q72.70 9.90 72.17 9.13L72.17 9.13L72.17 9.13Q71.64 8.36 71.67 7.21ZM86.38 7.10L87.98 10.50L86.46 10.50L85.02 7.73L85.02 7.73Q85.02 7.73 84.94 7.59L84.94 7.59L84.94 7.59Q84.87 7.45 84.73 7.28L84.73 7.28L84.73 7.28Q84.59 7.11 84.38 6.96L84.38 6.96L84.38 6.96Q84.17 6.82 83.92 6.82L83.92 6.82L82.80 6.82L82.80 10.50L81.40 10.50L81.40 1.36L83.57 1.36L83.57 1.36Q84.15 1.36 84.80 1.40L84.80 1.40L84.80 1.40Q85.44 1.44 85.98 1.70L85.98 1.70L85.98 1.70Q86.52 1.96 86.88 2.52L86.88 2.52L86.88 2.52Q87.23 3.08 87.23 4.10L87.23 4.10L87.23 4.10Q87.23 4.82 86.91 5.24L86.91 5.24L86.91 5.24Q86.59 5.66 86.21 5.88L86.21 5.88L86.21 5.88Q85.75 6.13 85.19 6.24L85.19 6.24L85.19 6.24Q85.51 6.31 85.83 6.47L85.83 6.47L85.83 6.47Q86.16 6.64 86.38 7.10L86.38 7.10ZM82.80 5.57L83.65 5.57L83.65 5.57Q84.04 5.57 84.41 5.55L84.41 5.55L84.41 5.55Q84.78 5.53 85.07 5.39L85.07 5.39L85.07 5.39Q85.36 5.25 85.53 4.95L85.53 4.95L85.53 4.95Q85.71 4.65 85.71 4.10L85.71 4.10L85.71 4.10Q85.71 3.54 85.53 3.23L85.53 3.23L85.53 3.23Q85.36 2.93 85.06 2.79L85.06 2.79L85.06 2.79Q84.76 2.65 84.35 2.63L84.35 2.63L84.35 2.63Q83.94 2.60 83.50 2.60L83.50 2.60L82.80 2.60L82.80 5.57ZM94.77 9.27L94.77 10.50L89.63 10.50L89.63 1.34L91.03 1.34L91.03 9.27L94.77 9.27ZM105.08 2.24L104.57 3.46L104.57 3.46Q104.08 3.09 103.48 2.88L103.48 2.88L103.48 2.88Q102.89 2.67 102.33 2.67L102.33 2.67L102.33 2.67Q101.67 2.67 101.27 2.94L101.27 2.94L101.27 2.94Q100.87 3.21 100.87 3.79L100.87 3.79L100.87 3.79Q100.87 4.10 101.02 4.32L101.02 4.32L101.02 4.32Q101.16 4.54 101.41 4.70L101.41 4.70L101.41 4.70Q101.65 4.86 101.98 4.98L101.98 4.98L101.98 4.98Q102.30 5.10 102.66 5.22L102.66 5.22L102.66 5.22Q103.14 5.39 103.63 5.58L103.63 5.58L103.63 5.58Q104.12 5.77 104.52 6.08L104.52 6.08L104.52 6.08Q104.92 6.38 105.16 6.85L105.16 6.85L105.16 6.85Q105.41 7.32 105.41 8.02L105.41 8.02L105.41 8.02Q105.41 8.71 105.14 9.21L105.14 9.21L105.14 9.21Q104.87 9.70 104.44 10.03L104.44 10.03L104.44 10.03Q104.01 10.36 103.44 10.51L103.44 10.51L103.44 10.51Q102.87 10.67 102.27 10.67L102.27 10.67L102.27 10.67Q101.37 10.67 100.52 10.32L100.52 10.32L100.52 10.32Q99.67 9.98 99.05 9.34L99.05 9.34L99.58 8.18L99.58 8.18Q100.13 8.75 100.87 9.06L100.87 9.06L100.87 9.06Q101.61 9.37 102.33 9.37L102.33 9.37L102.33 9.37Q103.01 9.37 103.46 9.09L103.46 9.09L103.46 9.09Q103.91 8.81 103.92 8.18L103.92 8.18L103.92 8.18Q103.92 7.84 103.77 7.59L103.77 7.59L103.77 7.59Q103.61 7.35 103.35 7.17L103.35 7.17L103.35 7.17Q103.08 7 102.74 6.87L102.74 6.87L102.74 6.87Q102.40 6.73 102.05 6.61L102.05 6.61L102.05 6.61Q101.58 6.45 101.12 6.26L101.12 6.26L101.12 6.26Q100.65 6.06 100.27 5.76L100.27 5.76L100.27 5.76Q99.89 5.46 99.66 5.01L99.66 5.01L99.66 5.01Q99.43 4.56 99.43 3.91L99.43 3.91L99.43 3.91Q99.43 3.23 99.68 2.75L99.68 2.75L99.68 2.75Q99.93 2.27 100.34 1.96L100.34 1.96L100.34 1.96Q100.76 1.65 101.29 1.50L101.29 1.50L101.29 1.50Q101.82 1.36 102.40 1.36L102.40 1.36L102.40 1.36Q103.15 1.36 103.85 1.60L103.85 1.60L103.85 1.60Q104.55 1.83 105.08 2.24L105.08 2.24ZM111.05 3.19L111.05 3.19L111.05 3.19Q112.45 3.19 113.09 4.02L113.09 4.02L113.09 4.02Q113.74 4.84 113.74 6.37L113.74 6.37L113.74 10.50L112.41 10.50L112.41 6.73L112.41 6.73Q112.41 5.46 112.08 4.86L112.08 4.86L112.08 4.86Q111.76 4.26 110.95 4.26L110.95 4.26L110.95 4.26Q110.39 4.26 109.98 4.47L109.98 4.47L109.98 4.47Q109.56 4.68 109.28 5.06L109.28 5.06L109.28 5.06Q109.00 5.45 108.86 5.99L108.86 5.99L108.86 5.99Q108.72 6.52 108.72 7.18L108.72 7.18L108.72 10.50L107.41 10.50L107.41 1.62L108.72 1.62L108.72 4.49L108.72 4.49Q109.06 3.92 109.70 3.56L109.70 3.56L109.70 3.56Q110.35 3.19 111.05 3.19ZM119.11 3.19L119.11 3.19L119.11 3.19Q119.66 3.19 120.29 3.35L120.29 3.35L120.29 3.35Q120.93 3.51 121.48 3.93L121.48 3.93L121.48 3.93Q122.02 4.35 122.39 5.08L122.39 5.08L122.39 5.08Q122.77 5.81 122.77 6.94L122.77 6.94L122.77 6.94Q122.77 8.08 122.39 8.80L122.39 8.80L122.39 8.80Q122.02 9.52 121.48 9.93L121.48 9.93L121.48 9.93Q120.93 10.35 120.29 10.51L120.29 10.51L120.29 10.51Q119.66 10.67 119.11 10.67L119.11 10.67L119.11 10.67Q118.58 10.67 117.95 10.51L117.95 10.51L117.95 10.51Q117.32 10.35 116.77 9.93L116.77 9.93L116.77 9.93Q116.23 9.52 115.86 8.80L115.86 8.80L115.86 8.80Q115.50 8.08 115.50 6.94L115.50 6.94L115.50 6.94Q115.50 5.81 115.86 5.08L115.86 5.08L115.86 5.08Q116.23 4.35 116.77 3.93L116.77 3.93L116.77 3.93Q117.32 3.51 117.95 3.35L117.95 3.35L117.95 3.35Q118.58 3.19 119.11 3.19ZM119.11 9.60L119.11 9.60L119.11 9.60Q119.57 9.60 119.99 9.44L119.99 9.44L119.99 9.44Q120.40 9.28 120.70 8.95L120.70 8.95L120.70 8.95Q121.00 8.61 121.18 8.11L121.18 8.11L121.18 8.11Q121.37 7.62 121.37 6.94L121.37 6.94L121.37 6.94Q121.37 6.27 121.18 5.77L121.18 5.77L121.18 5.77Q121.00 5.26 120.70 4.93L120.70 4.93L120.70 4.93Q120.40 4.59 119.99 4.42L119.99 4.42L119.99 4.42Q119.57 4.26 119.11 4.26L119.11 4.26L119.11 4.26Q118.66 4.26 118.27 4.42L118.27 4.42L118.27 4.42Q117.87 4.59 117.56 4.93L117.56 4.93L117.56 4.93Q117.26 5.26 117.09 5.77L117.09 5.77L117.09 5.77Q116.91 6.27 116.91 6.94L116.91 6.94L116.91 6.94Q116.91 7.62 117.09 8.11L117.09 8.11L117.09 8.11Q117.26 8.61 117.56 8.95L117.56 8.95L117.56 8.95Q117.87 9.28 118.27 9.44L118.27 9.44L118.27 9.44Q118.66 9.60 119.11 9.60ZM128.52 3.30L128.52 4.47L128.52 4.47Q128.42 4.44 128.31 4.41L128.31 4.41L128.31 4.41Q128.21 4.38 128.09 4.36L128.09 4.36L128.09 4.36Q127.97 4.34 127.86 4.34L127.86 4.34L127.86 4.34Q127.26 4.34 126.87 4.61L126.87 4.61L126.87 4.61Q126.48 4.89 126.25 5.31L126.25 5.31L126.25 5.31Q126.03 5.73 125.94 6.24L125.94 6.24L125.94 6.24Q125.85 6.76 125.85 7.25L125.85 7.25L125.85 10.50L124.53 10.50L124.53 3.36L125.65 3.36L125.80 4.47L125.80 4.47Q126 4.12 126.24 3.84L126.24 3.84L126.24 3.84Q126.48 3.57 126.80 3.40L126.80 3.40L126.80 3.40Q127.12 3.23 127.54 3.20L127.54 3.20L127.54 3.20Q127.96 3.16 128.52 3.30L128.52 3.30ZM134.06 5.12L132.17 5.12L132.17 8.46L132.17 8.46Q132.17 9.59 133.14 9.59L133.14 9.59L133.14 9.59Q133.55 9.59 133.97 9.38L133.97 9.38L133.97 10.40L133.97 10.40Q133.39 10.67 132.75 10.67L132.75 10.67L132.75 10.67Q131.82 10.67 131.31 10.14L131.31 10.14L131.31 10.14Q130.80 9.62 130.80 8.60L130.80 8.60L130.80 5.12L129.53 5.12L129.53 4.05L130.80 4.05L130.80 1.95L132.17 1.62L132.17 4.05L134.06 4.05L134.06 5.12ZM139.10 10.67L139.10 10.67L139.10 10.67Q137.90 10.67 137.15 10.31L137.15 10.31L137.15 10.31Q136.40 9.95 135.98 9.39L135.98 9.39L135.98 9.39Q135.56 8.83 135.41 8.14L135.41 8.14L135.41 8.14Q135.25 7.45 135.25 6.78L135.25 6.78L135.25 6.78Q135.25 6.10 135.47 5.46L135.47 5.46L135.47 5.46Q135.69 4.82 136.10 4.31L136.10 4.31L136.10 4.31Q136.51 3.81 137.12 3.50L137.12 3.50L137.12 3.50Q137.72 3.19 138.50 3.19L138.50 3.19L138.50 3.19Q139.44 3.19 140.07 3.52L140.07 3.52L140.07 3.52Q140.70 3.85 141.08 4.38L141.08 4.38L141.08 4.38Q141.46 4.90 141.61 5.54L141.61 5.54L141.61 5.54Q141.76 6.17 141.76 6.78L141.76 6.78L141.76 7.22L136.65 7.22L136.65 7.22Q136.71 7.90 136.96 8.41L136.96 8.41L136.96 8.41Q137.07 8.64 137.24 8.86L137.24 8.86L137.24 8.86Q137.41 9.07 137.65 9.24L137.65 9.24L137.65 9.24Q137.90 9.41 138.22 9.51L138.22 9.51L138.22 9.51Q138.54 9.60 138.96 9.60L138.96 9.60L138.96 9.60Q139.41 9.60 139.81 9.50L139.81 9.50L139.81 9.50Q140.21 9.39 140.52 9.27L140.52 9.27L140.52 9.27Q140.88 9.11 141.19 8.92L141.19 8.92L141.20 10.12L141.20 10.12Q141.20 10.12 141.04 10.21L141.04 10.21L141.04 10.21Q140.88 10.30 140.60 10.40L140.60 10.40L140.60 10.40Q140.32 10.50 139.94 10.58L139.94 10.58L139.94 10.58Q139.55 10.67 139.10 10.67ZM136.65 6.24L140.36 6.24L140.36 6.24Q140.36 5.89 140.26 5.54L140.26 5.54L140.26 5.54Q140.15 5.18 139.93 4.89L139.93 4.89L139.93 4.89Q139.71 4.61 139.36 4.43L139.36 4.43L139.36 4.43Q139.01 4.26 138.50 4.26L138.50 4.26L138.50 4.26Q138.07 4.26 137.72 4.43L137.72 4.43L137.72 4.43Q137.38 4.61 137.14 4.89L137.14 4.89L137.14 4.89Q136.91 5.18 136.78 5.54L136.78 5.54L136.78 5.54Q136.65 5.89 136.65 6.24L136.65 6.24ZM147.17 3.19L147.17 3.19L147.17 3.19Q148.57 3.19 149.21 4.02L149.21 4.02L149.21 4.02Q149.86 4.84 149.86 6.37L149.86 6.37L149.86 10.50L148.53 10.50L148.53 6.73L148.53 6.73Q148.53 5.46 148.20 4.86L148.20 4.86L148.20 4.86Q147.88 4.26 147.07 4.26L147.07 4.26L147.07 4.26Q146.51 4.26 146.10 4.47L146.10 4.47L146.10 4.47Q145.68 4.68 145.40 5.06L145.40 5.06L145.40 5.06Q145.12 5.45 144.98 5.99L144.98 5.99L144.98 5.99Q144.84 6.52 144.84 7.18L144.84 7.18L144.84 10.50L143.53 10.50L143.53 3.36L144.63 3.36L144.84 4.49L144.84 4.49Q145.18 3.92 145.82 3.56L145.82 3.56L145.82 3.56Q146.47 3.19 147.17 3.19ZM153.64 3.36L153.64 10.50L152.32 10.50L152.32 3.36L153.64 3.36ZM153.82 1.65L153.82 1.65L153.82 1.65Q153.82 2.02 153.57 2.27L153.57 2.27L153.57 2.27Q153.31 2.52 152.96 2.52L152.96 2.52L152.96 2.52Q152.60 2.52 152.35 2.27L152.35 2.27L152.35 2.27Q152.10 2.02 152.10 1.65L152.10 1.65L152.10 1.65Q152.10 1.30 152.35 1.05L152.35 1.05L152.35 1.05Q152.60 0.80 152.96 0.80L152.96 0.80L152.96 0.80Q153.31 0.80 153.57 1.05L153.57 1.05L153.57 1.05Q153.82 1.30 153.82 1.65ZM159.70 3.19L159.70 3.19L159.70 3.19Q161.10 3.19 161.74 4.02L161.74 4.02L161.74 4.02Q162.39 4.84 162.39 6.37L162.39 6.37L162.39 10.50L161.06 10.50L161.06 6.73L161.06 6.73Q161.06 5.46 160.73 4.86L160.73 4.86L160.73 4.86Q160.41 4.26 159.60 4.26L159.60 4.26L159.60 4.26Q159.04 4.26 158.63 4.47L158.63 4.47L158.63 4.47Q158.21 4.68 157.93 5.06L157.93 5.06L157.93 5.06Q157.65 5.45 157.51 5.99L157.51 5.99L157.51 5.99Q157.37 6.52 157.37 7.18L157.37 7.18L157.37 10.50L156.06 10.50L156.06 3.36L157.16 3.36L157.37 4.49L157.37 4.49Q157.71 3.92 158.35 3.56L158.35 3.56L158.35 3.56Q159.00 3.19 159.70 3.19ZM169.81 3.36L170.94 3.36L170.94 9.48L170.94 9.48Q170.94 10.23 170.75 10.88L170.75 10.88L170.75 10.88Q170.56 11.52 170.12 11.99L170.12 11.99L170.12 11.99Q169.68 12.46 168.94 12.73L168.94 12.73L168.94 12.73Q168.21 12.99 167.12 12.99L167.12 12.99L167.12 12.99Q166.67 12.99 166.27 12.91L166.27 12.91L166.27 12.91Q165.87 12.84 165.55 12.73L165.55 12.73L165.55 12.73Q165.19 12.60 164.86 12.45L164.86 12.45L164.68 11.28L164.68 11.28Q164.98 11.47 165.35 11.61L165.35 11.61L165.35 11.61Q165.68 11.73 166.12 11.83L166.12 11.83L166.12 11.83Q166.57 11.93 167.12 11.93L167.12 11.93L167.12 11.93Q168.06 11.93 168.57 11.67L168.57 11.67L168.57 11.67Q169.08 11.41 169.32 11.03L169.32 11.03L169.32 11.03Q169.55 10.64 169.59 10.19L169.59 10.19L169.59 10.19Q169.62 9.73 169.62 9.35L169.62 9.35L169.62 9.35Q169.18 9.95 168.62 10.23L168.62 10.23L168.62 10.23Q168.07 10.50 167.34 10.50L167.34 10.50L167.34 10.50Q166.73 10.50 166.15 10.27L166.15 10.27L166.15 10.27Q165.58 10.04 165.13 9.58L165.13 9.58L165.13 9.58Q164.68 9.11 164.42 8.44L164.42 8.44L164.42 8.44Q164.15 7.76 164.15 6.85L164.15 6.85L164.15 6.85Q164.15 5.95 164.42 5.27L164.42 5.27L164.42 5.27Q164.68 4.59 165.13 4.13L165.13 4.13L165.13 4.13Q165.58 3.67 166.15 3.43L166.15 3.43L166.15 3.43Q166.73 3.19 167.34 3.19L167.34 3.19L167.34 3.19Q168.04 3.19 168.48 3.38L168.48 3.38L168.48 3.38Q168.92 3.57 169.18 3.81L169.18 3.81L169.18 3.81Q169.47 4.07 169.62 4.42L169.62 4.42L169.81 3.36ZM167.58 9.44L167.58 9.44L167.58 9.44Q168.04 9.44 168.42 9.23L168.42 9.23L168.42 9.23Q168.80 9.03 169.06 8.68L169.06 8.68L169.06 8.68Q169.33 8.33 169.48 7.85L169.48 7.85L169.48 7.85Q169.62 7.38 169.62 6.85L169.62 6.85L169.62 6.85Q169.62 6.31 169.48 5.84L169.48 5.84L169.48 5.84Q169.33 5.38 169.06 5.02L169.06 5.02L169.06 5.02Q168.80 4.66 168.42 4.46L168.42 4.46L168.42 4.46Q168.04 4.26 167.58 4.26L167.58 4.26L167.58 4.26Q167.13 4.26 166.75 4.46L166.75 4.46L166.75 4.46Q166.38 4.66 166.11 5.02L166.11 5.02L166.11 5.02Q165.84 5.38 165.70 5.84L165.70 5.84L165.70 5.84Q165.55 6.31 165.55 6.85L165.55 6.85L165.55 6.85Q165.55 7.38 165.70 7.85L165.70 7.85L165.70 7.85Q165.84 8.33 166.11 8.68L166.11 8.68L166.11 8.68Q166.38 9.03 166.75 9.23L166.75 9.23L166.75 9.23Q167.13 9.44 167.58 9.44Z"></path></g></svg>