<?xml version="1.0" encoding="utf-8"?>
<!-- Generator: Adobe Illustrator 22.1.0, SVG Export Plug-In . SVG Version: 6.00 Build 0)  -->
<svg version="1.1" id="Layer_1" xmlns="http://www.w3.org/2000/svg" xmlns:xlink="http://www.w3.org/1999/xlink" x="0px" y="0px"
	 viewBox="0 0 300 74.1" style="enable-background:new 0 0 300 74.1;" xml:space="preserve">
<style type="text/css">
	.st0{fill:#5B359D;}
	.st1{fill:#FFFFFF;}
	.st2{fill:#9563C5;}
</style>
<rect class="st0" width="300" height="76.9"/>
<g id="_x38_db13546-360b-4c53-a46f-8c6be26e2a9e" transform="matrix(2.20893104568822,0,0,2.20893104568822,141.22577258063697,127.33178055304158)">
	<path class="st1" d="M9.3-38.8H8l-1-2.3H2.5l-1,2.3H0.2L4-47.9h1.5L9.3-38.8z M4.7-46.6L3-42.3h3.4L4.7-46.6z M14.2-46.1L14.2-46.1
		L14.2-46.1c0.9,0,1.6,0.3,2,0.8l0,0l0,0c0.4,0.5,0.6,1.3,0.6,2.4l0,0v4.1h-1.3v-3.8l0,0c0-0.8-0.1-1.5-0.3-1.9l0,0l0,0
		c-0.2-0.4-0.6-0.6-1.1-0.6l0,0l0,0c-0.4,0-0.7,0.1-1,0.2l0,0l0,0c-0.3,0.1-0.5,0.3-0.7,0.6l0,0l0,0c-0.2,0.3-0.3,0.6-0.4,0.9l0,0
		l0,0c-0.1,0.4-0.1,0.8-0.1,1.2l0,0v3.3h-1.3v-7.1h1.1l0.2,1.1l0,0c0.2-0.4,0.5-0.7,1-0.9l0,0l0,0C13.3-46,13.8-46.1,14.2-46.1z
		 M23-44.2h-1.9v3.3l0,0c0,0.8,0.3,1.1,1,1.1l0,0l0,0c0.3,0,0.5-0.1,0.8-0.2l0,0v1l0,0c-0.4,0.2-0.8,0.3-1.2,0.3l0,0l0,0
		c-0.6,0-1.1-0.2-1.4-0.5l0,0l0,0c-0.3-0.3-0.5-0.9-0.5-1.5l0,0v-3.5h-1.3v-1.1h1.3v-2.1l1.4-0.3v2.4H23V-44.2z M33.8-40v1.2h-5.1
		V-48h1.4v7.9H33.8z M36.8-45.9v7.1h-1.3v-7.1H36.8z M37-47.6L37-47.6L37-47.6c0,0.2-0.1,0.5-0.2,0.6l0,0l0,0
		c-0.2,0.2-0.4,0.2-0.6,0.2l0,0l0,0c-0.2,0-0.4-0.1-0.6-0.2l0,0l0,0c-0.2-0.2-0.2-0.4-0.2-0.6l0,0l0,0c0-0.2,0.1-0.4,0.2-0.6l0,0
		l0,0c0.2-0.2,0.4-0.2,0.6-0.2l0,0l0,0c0.2,0,0.4,0.1,0.6,0.2l0,0l0,0C36.9-48.1,37-47.9,37-47.6z M42.8-46.1L42.8-46.1L42.8-46.1
		c0.9,0,1.6,0.3,2.1,0.8l0,0l0,0c0.4,0.5,0.6,1.3,0.6,2.4l0,0v4.1h-1.3v-3.8l0,0c0-0.8-0.1-1.5-0.3-1.9l0,0l0,0
		c-0.2-0.4-0.6-0.6-1.1-0.6l0,0l0,0c-0.4,0-0.7,0.1-1,0.2l0,0l0,0c-0.3,0.1-0.5,0.3-0.7,0.6l0,0l0,0c-0.2,0.3-0.3,0.6-0.4,0.9l0,0
		l0,0c-0.1,0.4-0.1,0.8-0.1,1.2l0,0v3.3h-1.3v-7.1h1.1l0.2,1.1l0,0c0.2-0.4,0.6-0.7,1-0.9l0,0l0,0C41.9-46,42.4-46.1,42.8-46.1z
		 M53.7-45.9l-2.5,3.2l2.6,4h-1.6l-2-3.3h-1.1v3.3h-1.3v-8.9h1.3v4.2h1.1l2-2.5H53.7z"/>
</g>
<g id="ad0958ff-eede-46ba-9b32-d0602b5e4bca" transform="matrix(0.8990834080798455,0,0,0.8990834080798455,39.41469325103061,105.03836821617726)">
	<path class="st2" d="M98.5-88.6c-0.3,0-7.8,0.2-14.2,3.1c-6.2,2.7-8.9,2.8-11.1,2.6c-0.1,0-0.2,0-0.3,0.1c-0.4-0.3-0.9-0.6-1.4-0.9
		c7-10.1,15.2-15.1,15.3-15.2c0.3-0.2,0.4-0.6,0.2-1c-0.2-0.3-0.6-0.4-1-0.2l0,0c-0.3,0.2-8.6,5.3-15.9,15.8
		c-0.3-0.1-0.6-0.2-0.8-0.3c-4.2-1.2-8.3,0.2-9.2,3.2c-0.2,0.9-0.2,1.8,0.1,2.6c-1.6-1.3-4.3-1.9-7.3-1.6c-0.3-0.8-0.5-1.6-0.8-2.5
		c-0.4-1.3-0.6-2-0.7-2.2c-0.1-0.2-0.1-0.4-0.2-0.5c-0.1-0.5-0.3-1-0.9-1.1c-0.6-0.1-1.1,0.6-1.7,1.5c-0.9,1.4-1.4,4.7-1.7,7
		c-0.7,0.4-1.2,1-1.8,1.6l-5.3-6.1l-0.2-0.1c-0.7-0.4-1.3-0.5-1.8-0.3c-0.5,0.2-0.7,0.7-0.8,1L32-73.5c-2.2-1.7-3.6-2.5-4.2-2.5
		c-0.4,0-1.2,0-16.7,19.3c0,0-2.7,4.6-9.7,3.9c-0.4,0-0.7,0.3-0.8,0.6c0,0.4,0.3,0.7,0.6,0.8c0.5,0.1,1.1,0.1,1.5,0.1
		c6.8,0,9.4-4.5,9.5-4.6c5.3-6.6,14-17.2,15.6-18.6c0.6,0.3,1.9,1.2,3.4,2.3L30-69.9c-3.8,3.4-6.6,8.1-6.6,11.7L22.7-57
		c0,0-0.8,2.3-4.7,1.4c-0.4-0.1-0.8,0.2-0.8,0.5c-0.1,0.4,0.2,0.8,0.5,0.8c0.7,0.2,1.4,0.2,2,0.2c2.6,0,3.7-1.3,4.1-2.1
		c0.1,0.3,0.3,0.6,0.5,0.8c2.7,3.5,10.8,1.4,16.5-3c2.7-2.1,4.7-4.6,5.7-7c0.9,4.6,1.9,11.7,2.8,18.4l0.1,0.2
		c0.5,0.9,2.1,3.9,3.2,4.5c0.3,0.2,0.8,0.1,1-0.3c0,0,0,0,0,0c0.2-0.3,0.1-0.8-0.3-1c0,0,0,0,0,0c-0.5-0.2-1.7-2.2-2.6-3.8
		c-0.7-5.3-2.1-15.9-3.4-21.1c0.1-0.5,0.1-1,0-1.5c0.9,0.3,1.9,0.5,2.9,0.6c0.2,0.1,0.3,0.1,0.5,0c0.9,0,1.8,0,2.7-0.2
		c1.8,3.7,4.8,10.2,5.4,12.1c0.1,0.2,0.1,0.5,0.2,0.7c0.7,2.3,1.4,3.1,5.7,3.1c0.8,0,1.7,0,2.8-0.1c0.4,0,0.7-0.3,0.7-0.7
		c0,0,0,0,0,0c0-0.4-0.4-0.7-0.7-0.7c-6.3,0.3-6.5-0.2-7-2c-0.1-0.2-0.1-0.5-0.2-0.7c-0.6-1.9-3.6-8.1-5.4-11.9
		c0.3-0.1,0.5-0.1,0.8-0.2c0.5,0.8,0.9,1.2,1.2,1.4c0.2,0.1,0.3,0.1,0.5,0.1c0.1,0,0.3,0,0.4-0.1c0.3-0.1,0.7-0.3,1-0.4
		c0.2,0,0.4,0,0.6-0.2l0.5-0.5l-0.3-0.5c-0.4-0.6-1-0.3-2.1,0.2c-0.1-0.1-0.3-0.3-0.4-0.5c1.2-0.5,2.3-1.2,3.1-1.9
		c2.8-0.4,5.1-0.6,5.7-0.5c0.2,0.1,0.3,0.1,0.4,0.2c-0.1,0.2-0.1,0.5,0,0.8c0.1,0.5,4.6,13.5,7.4,15.1c1,0.6,1.8,0.8,2.5,0.8
		c0.6,0,1.2-0.2,1.7-0.3c0.5-0.2,1.1-0.3,1.9-0.4c0.4,0,0.7-0.4,0.7-0.8c0,0,0,0,0,0c0-0.4-0.4-0.7-0.8-0.7
		c-0.9,0.1-1.6,0.3-2.1,0.4c-1.1,0.3-1.7,0.5-3.1-0.3c-2.1-1.2-6.5-12.9-6.7-14.2c0-0.1,0-0.2,0-0.3c0.3-1.1-0.6-1.4-1.4-1.7
		c-0.7-0.2-2.6-0.1-4.8,0.2c0.5-0.9,0.7-1.8,0.5-2.7c0,0,0,0,0-0.1c1.1,1.1,2.6,2,4.5,2.5c0.3,0.1,2.6,0.4,5.6,0
		c2.3-0.3,2.7-2.4,5.6-2.2L76-76.9l1.9-0.3l-1.6-0.9c-1-1-0.5-0.8-1.1-1.6c-0.2-0.6-0.6-1.2-1-1.7c0.1,0,0.2,0,0.3,0
		c2.2,0,5.1-0.5,10.3-2.8c6.2-2.7,13.6-2.9,13.7-2.9c0.4,0,0.7-0.3,0.7-0.7c0,0,0,0,0,0C99.2-88.3,98.8-88.5,98.5-88.6z M49.6-84.4
		c0.1-0.2,0.2-0.3,0.3-0.4c0,0.1,0.1,0.2,0.1,0.3c0.1,0.2,0.4,1.1,0.7,2.1c0.3,0.8,0.5,1.6,0.7,2.3c-1.2,0.2-2.2,0.6-3.2,1.1
		C48.6-81.2,49-83.5,49.6-84.4z M38.2-81.5l0.1-0.3c0,0,0.1,0,0.4,0.2l5.5,6.4c-0.2,0.4-0.3,0.8-0.3,1.2c-2.7-1-6.6-0.4-10.4,1.7
		l-0.3-0.3C33.2-72.7,38.2-81.5,38.2-81.5z"/>
</g>
<g id="c28de8ed-1fba-47a3-9462-ab104731a1b4" transform="matrix(0.6980233021639396,0,0,0.6980233021639396,140.67990009980028,160.3426559340231)">
	<path class="st1" d="M2.7-149.6L2.7-149.6v2.9h3.5v1.2H1.3v-9.1h4.9L6-153.4H2.7v2.5h3.1v1.2H2.7z M11.9-152.8L11.9-152.8
		L11.9-152.8c0.9,0,1.6,0.3,2.1,0.8l0,0l0,0c0.4,0.5,0.6,1.3,0.6,2.4l0,0v4.1h-1.3v-3.8l0,0c0-0.8-0.1-1.5-0.3-1.9l0,0l0,0
		c-0.2-0.4-0.6-0.6-1.1-0.6l0,0l0,0c-0.4,0-0.7,0.1-1,0.2l0,0l0,0c-0.3,0.1-0.5,0.3-0.7,0.6l0,0l0,0c-0.2,0.3-0.3,0.6-0.4,0.9l0,0
		l0,0c-0.1,0.4-0.1,0.8-0.1,1.2l0,0v3.3H8.3v-7.1h1.1l0.2,1.1l0,0c0.2-0.4,0.5-0.7,1-0.9l0,0l0,0C11-152.7,11.5-152.8,11.9-152.8z
		 M20.7-150.9h-1.9v3.3l0,0c0,0.8,0.3,1.1,1,1.1l0,0l0,0c0.3,0,0.5-0.1,0.8-0.2l0,0v1l0,0c-0.4,0.2-0.8,0.3-1.2,0.3l0,0l0,0
		c-0.6,0-1.1-0.2-1.4-0.5l0,0l0,0c-0.3-0.3-0.5-0.9-0.5-1.5l0,0v-3.5h-1.3v-1.1h1.3v-2.1l1.4-0.3v2.4h1.9V-150.9z M25.8-145.3
		L25.8-145.3L25.8-145.3c-0.8,0-1.5-0.1-2-0.4l0,0l0,0c-0.5-0.2-0.9-0.5-1.2-0.9l0,0l0,0c-0.3-0.4-0.5-0.8-0.6-1.2l0,0l0,0
		c-0.1-0.5-0.2-0.9-0.2-1.4l0,0l0,0c0-0.5,0.1-0.9,0.2-1.3l0,0l0,0c0.1-0.4,0.4-0.8,0.6-1.1l0,0l0,0c0.3-0.3,0.6-0.6,1-0.8l0,0l0,0
		c0.4-0.2,0.9-0.3,1.4-0.3l0,0l0,0c0.6,0,1.1,0.1,1.6,0.3l0,0l0,0c0.4,0.2,0.8,0.5,1,0.9l0,0l0,0c0.3,0.3,0.4,0.7,0.5,1.2l0,0l0,0
		c0.1,0.4,0.1,0.8,0.1,1.2l0,0v0.4h-5.1l0,0c0,0.5,0.1,0.9,0.3,1.2l0,0l0,0c0.1,0.2,0.2,0.3,0.3,0.4l0,0l0,0
		c0.1,0.1,0.3,0.3,0.4,0.4l0,0l0,0c0.2,0.1,0.3,0.2,0.6,0.3l0,0l0,0c0.2,0.1,0.5,0.1,0.7,0.1l0,0l0,0c0.3,0,0.6,0,0.9-0.1l0,0l0,0
		c0.3-0.1,0.5-0.2,0.7-0.2l0,0l0,0c0.2-0.1,0.5-0.2,0.7-0.3l0,0l0,1.2l0,0c0,0-0.1,0-0.2,0.1l0,0l0,0c-0.1,0.1-0.3,0.1-0.4,0.2l0,0
		l0,0c-0.2,0.1-0.4,0.1-0.7,0.2l0,0l0,0C26.4-145.4,26.1-145.3,25.8-145.3z M23.3-149.8H27l0,0c0-0.2,0-0.5-0.1-0.7l0,0l0,0
		c-0.1-0.2-0.2-0.5-0.3-0.7l0,0l0,0c-0.1-0.2-0.3-0.3-0.6-0.5l0,0l0,0c-0.2-0.1-0.5-0.2-0.9-0.2l0,0l0,0c-0.3,0-0.5,0.1-0.8,0.2l0,0
		l0,0c-0.2,0.1-0.4,0.3-0.6,0.5l0,0l0,0c-0.2,0.2-0.3,0.4-0.4,0.7l0,0l0,0C23.4-150.2,23.3-150,23.3-149.8L23.3-149.8z M34.2-152.7
		v1.2l0,0c-0.1,0-0.1,0-0.2-0.1l0,0l0,0c-0.1,0-0.1,0-0.2-0.1l0,0l0,0c-0.1,0-0.2,0-0.2,0l0,0l0,0c-0.4,0-0.7,0.1-1,0.3l0,0l0,0
		c-0.3,0.2-0.5,0.4-0.6,0.7l0,0l0,0c-0.1,0.3-0.2,0.6-0.3,0.9l0,0l0,0c-0.1,0.3-0.1,0.7-0.1,1l0,0v3.3h-1.3v-7.1h1.1l0.1,1.1l0,0
		c0.1-0.2,0.3-0.4,0.4-0.6l0,0l0,0c0.2-0.2,0.3-0.3,0.6-0.4l0,0l0,0c0.2-0.1,0.5-0.2,0.7-0.2l0,0l0,0
		C33.5-152.8,33.8-152.8,34.2-152.7L34.2-152.7z M39.4-145.3L39.4-145.3L39.4-145.3c-0.5,0-0.9-0.1-1.4-0.3l0,0l0,0
		c-0.4-0.2-0.8-0.4-1.1-0.8l0,0v2.8h-1.3v-9h1.1l0.2,1v0l0,0c0.1-0.2,0.3-0.4,0.5-0.6l0,0l0,0c0.2-0.1,0.4-0.3,0.8-0.4l0,0l0,0
		c0.3-0.1,0.7-0.2,1.2-0.2l0,0l0,0c0.5,0,0.9,0.1,1.3,0.3l0,0l0,0c0.4,0.2,0.7,0.5,1,0.8l0,0l0,0c0.3,0.3,0.5,0.7,0.6,1.2l0,0l0,0
		c0.1,0.5,0.2,0.9,0.2,1.4l0,0l0,0c0,0.5-0.1,1-0.2,1.4l0,0l0,0c-0.1,0.5-0.3,0.9-0.6,1.2l0,0l0,0c-0.3,0.3-0.6,0.6-1,0.8l0,0l0,0
		C40.3-145.4,39.9-145.3,39.4-145.3z M39.1-151.7L39.1-151.7L39.1-151.7c-0.3,0-0.5,0.1-0.8,0.2l0,0l0,0c-0.3,0.1-0.5,0.3-0.7,0.5
		l0,0l0,0c-0.2,0.2-0.4,0.5-0.5,0.8l0,0l0,0c-0.1,0.3-0.2,0.7-0.2,1.2l0,0l0,0c0,0.4,0.1,0.8,0.2,1.2l0,0l0,0
		c0.1,0.3,0.3,0.6,0.5,0.8l0,0l0,0c0.2,0.2,0.4,0.4,0.7,0.5l0,0l0,0c0.3,0.1,0.5,0.2,0.8,0.2l0,0l0,0c0.3,0,0.5-0.1,0.7-0.2l0,0l0,0
		c0.2-0.1,0.4-0.3,0.6-0.5l0,0l0,0c0.2-0.2,0.3-0.5,0.4-0.8l0,0l0,0c0.1-0.3,0.1-0.7,0.1-1.2l0,0l0,0c0-0.5,0-0.8-0.1-1.2l0,0l0,0
		c-0.1-0.3-0.2-0.6-0.4-0.8l0,0l0,0c-0.2-0.2-0.4-0.4-0.6-0.5l0,0l0,0C39.6-151.7,39.4-151.7,39.1-151.7z M48.2-152.7v1.2l0,0
		c-0.1,0-0.1,0-0.2-0.1l0,0l0,0c-0.1,0-0.1,0-0.2-0.1l0,0l0,0c-0.1,0-0.2,0-0.2,0l0,0l0,0c-0.4,0-0.7,0.1-1,0.3l0,0l0,0
		c-0.3,0.2-0.5,0.4-0.6,0.7l0,0l0,0c-0.1,0.3-0.2,0.6-0.3,0.9l0,0l0,0c-0.1,0.3-0.1,0.7-0.1,1l0,0v3.3h-1.3v-7.1h1.1l0.2,1.1l0,0
		c0.1-0.2,0.3-0.4,0.4-0.6l0,0l0,0c0.2-0.2,0.3-0.3,0.6-0.4l0,0l0,0c0.2-0.1,0.5-0.2,0.7-0.2l0,0l0,0
		C47.5-152.8,47.8-152.8,48.2-152.7L48.2-152.7z M51.2-152.6v7.1h-1.3v-7.1H51.2z M51.4-154.3L51.4-154.3L51.4-154.3
		c0,0.2-0.1,0.5-0.3,0.6l0,0l0,0c-0.2,0.2-0.4,0.2-0.6,0.2l0,0l0,0c-0.2,0-0.4-0.1-0.6-0.2l0,0l0,0c-0.2-0.2-0.3-0.4-0.3-0.6l0,0
		l0,0c0-0.2,0.1-0.4,0.3-0.6l0,0l0,0c0.2-0.2,0.4-0.2,0.6-0.2l0,0l0,0c0.2,0,0.4,0.1,0.6,0.2l0,0l0,0
		C51.3-154.8,51.4-154.6,51.4-154.3z M57.8-152.1l-0.4,1l0,0c-0.5-0.4-1.1-0.6-1.7-0.6l0,0l0,0c-0.3,0-0.6,0.1-0.8,0.2l0,0l0,0
		c-0.2,0.1-0.3,0.4-0.3,0.7l0,0l0,0c0,0.2,0,0.3,0.1,0.4l0,0l0,0c0.1,0.1,0.2,0.2,0.3,0.3l0,0l0,0c0.1,0.1,0.3,0.2,0.4,0.2l0,0l0,0
		c0.2,0.1,0.4,0.1,0.5,0.2l0,0l0,0c0.2,0.1,0.5,0.2,0.7,0.3l0,0l0,0c0.3,0.1,0.5,0.2,0.7,0.4l0,0l0,0c0.2,0.2,0.4,0.4,0.5,0.6l0,0
		l0,0c0.1,0.3,0.2,0.6,0.2,0.9l0,0l0,0c0,0.4-0.1,0.7-0.2,0.9l0,0l0,0c-0.1,0.3-0.3,0.5-0.5,0.7l0,0l0,0c-0.2,0.2-0.5,0.3-0.8,0.4
		l0,0l0,0c-0.3,0.1-0.6,0.1-0.9,0.1l0,0l0,0c-0.5,0-0.9-0.1-1.4-0.3l0,0l0,0c-0.4-0.2-0.8-0.5-1.2-0.8l0,0l0.4-0.9l0,0
		c0.3,0.3,0.6,0.5,1,0.7l0,0l0,0c0.4,0.2,0.7,0.2,1.1,0.2l0,0l0,0c0.4,0,0.6-0.1,0.9-0.2l0,0l0,0c0.2-0.1,0.4-0.4,0.4-0.7l0,0l0,0
		c0-0.2,0-0.3-0.1-0.5l0,0l0,0c-0.1-0.1-0.2-0.2-0.3-0.3l0,0l0,0c-0.1-0.1-0.3-0.2-0.5-0.2l0,0l0,0c-0.2-0.1-0.4-0.1-0.5-0.2l0,0
		l0,0c-0.2-0.1-0.5-0.2-0.7-0.3l0,0l0,0c-0.2-0.1-0.5-0.2-0.7-0.4l0,0l0,0c-0.2-0.2-0.3-0.4-0.5-0.6l0,0l0,0
		c-0.1-0.2-0.2-0.5-0.2-0.9l0,0l0,0c0-0.4,0.1-0.7,0.2-0.9l0,0l0,0c0.1-0.3,0.3-0.5,0.5-0.6l0,0l0,0c0.2-0.2,0.5-0.3,0.8-0.4l0,0
		l0,0c0.3-0.1,0.6-0.1,0.9-0.1l0,0l0,0c0.4,0,0.8,0.1,1.1,0.2l0,0l0,0C57.2-152.5,57.5-152.3,57.8-152.1L57.8-152.1z M63.2-145.3
		L63.2-145.3L63.2-145.3c-0.8,0-1.5-0.1-2-0.4l0,0l0,0c-0.5-0.2-0.9-0.5-1.2-0.9l0,0l0,0c-0.3-0.4-0.5-0.8-0.6-1.2l0,0l0,0
		c-0.1-0.5-0.2-0.9-0.2-1.4l0,0l0,0c0-0.5,0.1-0.9,0.2-1.3l0,0l0,0c0.1-0.4,0.4-0.8,0.6-1.1l0,0l0,0c0.3-0.3,0.6-0.6,1-0.8l0,0l0,0
		c0.4-0.2,0.9-0.3,1.4-0.3l0,0l0,0c0.6,0,1.2,0.1,1.6,0.3l0,0l0,0c0.4,0.2,0.8,0.5,1,0.9l0,0l0,0c0.3,0.3,0.4,0.7,0.5,1.2l0,0l0,0
		c0.1,0.4,0.2,0.8,0.2,1.2l0,0v0.4h-5.1l0,0c0,0.5,0.1,0.9,0.3,1.2l0,0l0,0c0.1,0.2,0.2,0.3,0.3,0.4l0,0l0,0
		c0.1,0.1,0.3,0.3,0.4,0.4l0,0l0,0c0.2,0.1,0.3,0.2,0.6,0.3l0,0l0,0c0.2,0.1,0.5,0.1,0.8,0.1l0,0l0,0c0.3,0,0.6,0,0.8-0.1l0,0l0,0
		c0.3-0.1,0.5-0.2,0.7-0.2l0,0l0,0c0.2-0.1,0.5-0.2,0.7-0.3l0,0l0,1.2l0,0c0,0-0.1,0-0.2,0.1l0,0l0,0c-0.1,0.1-0.3,0.1-0.4,0.2l0,0
		l0,0c-0.2,0.1-0.4,0.1-0.7,0.2l0,0l0,0C63.8-145.4,63.5-145.3,63.2-145.3z M60.8-149.8h3.7l0,0c0-0.2,0-0.5-0.1-0.7l0,0l0,0
		c-0.1-0.2-0.2-0.5-0.3-0.7l0,0l0,0c-0.1-0.2-0.3-0.3-0.6-0.5l0,0l0,0c-0.2-0.1-0.5-0.2-0.9-0.2l0,0l0,0c-0.3,0-0.5,0.1-0.8,0.2l0,0
		l0,0c-0.2,0.1-0.4,0.3-0.6,0.5l0,0l0,0c-0.2,0.2-0.3,0.4-0.4,0.7l0,0l0,0C60.8-150.2,60.8-150,60.8-149.8L60.8-149.8z M71.7-148.8
		L71.7-148.8v-5.9h1.4v5.8l0,0c0,0.3,0,0.6,0.1,0.8l0,0l0,0c0.1,0.3,0.2,0.5,0.4,0.7l0,0l0,0c0.2,0.2,0.4,0.4,0.7,0.5l0,0l0,0
		c0.3,0.1,0.6,0.2,1,0.2l0,0l0,0c0.4,0,0.7-0.1,1-0.2l0,0l0,0c0.3-0.1,0.5-0.3,0.7-0.5l0,0l0,0c0.2-0.2,0.3-0.4,0.4-0.7l0,0l0,0
		c0.1-0.3,0.1-0.6,0.1-0.8l0,0v-5.8H79v5.9l0,0c0,0.8-0.2,1.4-0.5,1.9l0,0l0,0c-0.4,0.5-0.8,0.9-1.4,1.2l0,0l0,0
		c-0.6,0.3-1.1,0.4-1.8,0.4l0,0l0,0c-0.6,0-1.2-0.1-1.8-0.4l0,0l0,0c-0.5-0.3-1-0.6-1.3-1.2l0,0l0,0C71.8-147.4,71.7-148,71.7-148.8
		z M86.4-148.9l1.6,3.4h-1.5l-1.4-2.8l0,0c0,0,0,0-0.1-0.1l0,0l0,0c0-0.1-0.1-0.2-0.2-0.3l0,0l0,0c-0.1-0.1-0.2-0.2-0.4-0.3l0,0l0,0
		c-0.1-0.1-0.3-0.1-0.5-0.1l0,0h-1.1v3.7h-1.4v-9.1h2.2l0,0c0.4,0,0.8,0,1.2,0l0,0l0,0c0.4,0,0.8,0.1,1.2,0.3l0,0l0,0
		c0.4,0.2,0.7,0.4,0.9,0.8l0,0l0,0c0.2,0.4,0.4,0.9,0.4,1.6l0,0l0,0c0,0.5-0.1,0.9-0.3,1.1l0,0l0,0c-0.2,0.3-0.4,0.5-0.7,0.6l0,0
		l0,0c-0.3,0.2-0.6,0.3-1,0.4l0,0l0,0c0.2,0,0.4,0.1,0.6,0.2l0,0l0,0C86.1-149.4,86.2-149.2,86.4-148.9L86.4-148.9z M82.8-150.4h0.8
		l0,0c0.3,0,0.5,0,0.8,0l0,0l0,0c0.2,0,0.5-0.1,0.7-0.2l0,0l0,0c0.2-0.1,0.3-0.2,0.5-0.4l0,0l0,0c0.1-0.2,0.2-0.5,0.2-0.9l0,0l0,0
		c0-0.4-0.1-0.7-0.2-0.9l0,0l0,0c-0.1-0.2-0.3-0.3-0.5-0.4l0,0l0,0c-0.2-0.1-0.4-0.1-0.7-0.2l0,0l0,0c-0.3,0-0.6,0-0.8,0l0,0h-0.7
		V-150.4z M94.8-146.7v1.2h-5.1v-9.2H91v7.9H94.8z M105.1-153.8l-0.5,1.2l0,0c-0.3-0.2-0.7-0.4-1.1-0.6l0,0l0,0
		c-0.4-0.1-0.8-0.2-1.2-0.2l0,0l0,0c-0.4,0-0.8,0.1-1.1,0.3l0,0l0,0c-0.3,0.2-0.4,0.5-0.4,0.9l0,0l0,0c0,0.2,0.1,0.4,0.1,0.5l0,0
		l0,0c0.1,0.1,0.2,0.3,0.4,0.4l0,0l0,0c0.2,0.1,0.3,0.2,0.6,0.3l0,0l0,0c0.2,0.1,0.4,0.2,0.7,0.2l0,0l0,0c0.3,0.1,0.6,0.2,1,0.4l0,0
		l0,0c0.3,0.1,0.6,0.3,0.9,0.5l0,0l0,0c0.3,0.2,0.5,0.5,0.6,0.8l0,0l0,0c0.2,0.3,0.2,0.7,0.2,1.2l0,0l0,0c0,0.5-0.1,0.9-0.3,1.2l0,0
		l0,0c-0.2,0.3-0.4,0.6-0.7,0.8l0,0l0,0c-0.3,0.2-0.6,0.4-1,0.5l0,0l0,0c-0.4,0.1-0.8,0.2-1.2,0.2l0,0l0,0c-0.6,0-1.2-0.1-1.8-0.4
		l0,0l0,0c-0.6-0.2-1.1-0.6-1.5-1l0,0l0.5-1.2l0,0c0.4,0.4,0.8,0.7,1.3,0.9l0,0l0,0c0.5,0.2,1,0.3,1.5,0.3l0,0l0,0
		c0.5,0,0.8-0.1,1.1-0.3l0,0l0,0c0.3-0.2,0.5-0.5,0.5-0.9l0,0l0,0c0-0.2-0.1-0.4-0.2-0.6l0,0l0,0c-0.1-0.2-0.2-0.3-0.4-0.4l0,0l0,0
		c-0.2-0.1-0.4-0.2-0.6-0.3l0,0l0,0c-0.2-0.1-0.5-0.2-0.7-0.3l0,0l0,0c-0.3-0.1-0.6-0.2-0.9-0.3l0,0l0,0c-0.3-0.1-0.6-0.3-0.9-0.5
		l0,0l0,0c-0.3-0.2-0.5-0.4-0.6-0.8l0,0l0,0c-0.2-0.3-0.2-0.7-0.2-1.1l0,0l0,0c0-0.5,0.1-0.8,0.2-1.2l0,0l0,0
		c0.2-0.3,0.4-0.6,0.7-0.8l0,0l0,0c0.3-0.2,0.6-0.4,1-0.5l0,0l0,0c0.4-0.1,0.7-0.1,1.1-0.1l0,0l0,0c0.5,0,1,0.1,1.4,0.2l0,0l0,0
		C104.3-154.2,104.7-154,105.1-153.8L105.1-153.8z M111.1-152.8L111.1-152.8L111.1-152.8c0.9,0,1.6,0.3,2,0.8l0,0l0,0
		c0.4,0.5,0.7,1.3,0.7,2.4l0,0v4.1h-1.3v-3.8l0,0c0-0.8-0.1-1.5-0.3-1.9l0,0l0,0c-0.2-0.4-0.6-0.6-1.1-0.6l0,0l0,0
		c-0.4,0-0.7,0.1-1,0.2l0,0l0,0c-0.3,0.1-0.5,0.3-0.7,0.6l0,0l0,0c-0.2,0.3-0.3,0.6-0.4,0.9l0,0l0,0c-0.1,0.4-0.1,0.8-0.1,1.2l0,0
		v3.3h-1.3v-8.9h1.3v2.9l0,0c0.2-0.4,0.6-0.7,1-0.9l0,0l0,0C110.1-152.7,110.6-152.8,111.1-152.8z M119.1-152.8L119.1-152.8
		L119.1-152.8c0.4,0,0.8,0.1,1.2,0.2l0,0l0,0c0.4,0.1,0.8,0.3,1.2,0.6l0,0l0,0c0.4,0.3,0.7,0.7,0.9,1.1l0,0l0,0
		c0.3,0.5,0.4,1.1,0.4,1.9l0,0l0,0c0,0.8-0.1,1.4-0.4,1.9l0,0l0,0c-0.2,0.5-0.6,0.9-0.9,1.1l0,0l0,0c-0.4,0.3-0.8,0.5-1.2,0.6l0,0
		l0,0c-0.4,0.1-0.8,0.2-1.2,0.2l0,0l0,0c-0.4,0-0.7-0.1-1.2-0.2l0,0l0,0c-0.4-0.1-0.8-0.3-1.2-0.6l0,0l0,0c-0.4-0.3-0.7-0.6-0.9-1.1
		l0,0l0,0c-0.2-0.5-0.4-1.1-0.4-1.9l0,0l0,0c0-0.8,0.1-1.4,0.4-1.9l0,0l0,0c0.2-0.5,0.6-0.9,0.9-1.1l0,0l0,0
		c0.4-0.3,0.8-0.5,1.2-0.6l0,0l0,0C118.4-152.7,118.8-152.8,119.1-152.8z M119.1-146.4L119.1-146.4L119.1-146.4
		c0.3,0,0.6-0.1,0.9-0.2l0,0l0,0c0.3-0.1,0.5-0.3,0.7-0.5l0,0l0,0c0.2-0.2,0.4-0.5,0.5-0.8l0,0l0,0c0.1-0.3,0.2-0.7,0.2-1.2l0,0l0,0
		c0-0.4-0.1-0.8-0.2-1.2l0,0l0,0c-0.1-0.3-0.3-0.6-0.5-0.8l0,0l0,0c-0.2-0.2-0.4-0.4-0.7-0.5l0,0l0,0c-0.3-0.1-0.6-0.2-0.9-0.2l0,0
		l0,0c-0.3,0-0.6,0.1-0.8,0.2l0,0l0,0c-0.3,0.1-0.5,0.3-0.7,0.5l0,0l0,0c-0.2,0.2-0.4,0.5-0.5,0.8l0,0l0,0c-0.1,0.3-0.2,0.7-0.2,1.2
		l0,0l0,0c0,0.5,0.1,0.8,0.2,1.2l0,0l0,0c0.1,0.3,0.3,0.6,0.5,0.8l0,0l0,0c0.2,0.2,0.4,0.4,0.7,0.5l0,0l0,0
		C118.5-146.4,118.8-146.4,119.1-146.4z M128.5-152.7v1.2l0,0c-0.1,0-0.1,0-0.2-0.1l0,0l0,0c-0.1,0-0.1,0-0.2-0.1l0,0l0,0
		c-0.1,0-0.2,0-0.2,0l0,0l0,0c-0.4,0-0.7,0.1-1,0.3l0,0l0,0c-0.3,0.2-0.5,0.4-0.6,0.7l0,0l0,0c-0.1,0.3-0.2,0.6-0.3,0.9l0,0l0,0
		c-0.1,0.3-0.1,0.7-0.1,1l0,0v3.3h-1.3v-7.1h1.1l0.2,1.1l0,0c0.1-0.2,0.3-0.4,0.4-0.6l0,0l0,0c0.2-0.2,0.3-0.3,0.6-0.4l0,0l0,0
		c0.2-0.1,0.5-0.2,0.7-0.2l0,0l0,0C127.8-152.8,128.1-152.8,128.5-152.7L128.5-152.7z M134.1-150.9h-1.9v3.3l0,0
		c0,0.8,0.3,1.1,1,1.1l0,0l0,0c0.3,0,0.6-0.1,0.8-0.2l0,0v1l0,0c-0.4,0.2-0.8,0.3-1.2,0.3l0,0l0,0c-0.6,0-1.1-0.2-1.4-0.5l0,0l0,0
		c-0.3-0.3-0.5-0.9-0.5-1.5l0,0v-3.5h-1.3v-1.1h1.3v-2.1l1.4-0.3v2.4h1.9V-150.9z M139.1-145.3L139.1-145.3L139.1-145.3
		c-0.8,0-1.5-0.1-2-0.4l0,0l0,0c-0.5-0.2-0.9-0.5-1.2-0.9l0,0l0,0c-0.3-0.4-0.5-0.8-0.6-1.2l0,0l0,0c-0.1-0.5-0.2-0.9-0.2-1.4l0,0
		l0,0c0-0.5,0.1-0.9,0.2-1.3l0,0l0,0c0.1-0.4,0.4-0.8,0.6-1.1l0,0l0,0c0.3-0.3,0.6-0.6,1-0.8l0,0l0,0c0.4-0.2,0.9-0.3,1.4-0.3l0,0
		l0,0c0.6,0,1.2,0.1,1.6,0.3l0,0l0,0c0.4,0.2,0.8,0.5,1,0.9l0,0l0,0c0.3,0.3,0.4,0.7,0.5,1.2l0,0l0,0c0.1,0.4,0.1,0.8,0.1,1.2l0,0
		v0.4h-5.1l0,0c0,0.5,0.1,0.9,0.3,1.2l0,0l0,0c0.1,0.2,0.2,0.3,0.3,0.4l0,0l0,0c0.1,0.1,0.2,0.3,0.4,0.4l0,0l0,0
		c0.2,0.1,0.4,0.2,0.6,0.3l0,0l0,0c0.2,0.1,0.5,0.1,0.7,0.1l0,0l0,0c0.3,0,0.6,0,0.8-0.1l0,0l0,0c0.3-0.1,0.5-0.2,0.7-0.2l0,0l0,0
		c0.2-0.1,0.5-0.2,0.7-0.3l0,0l0,1.2l0,0c0,0-0.1,0-0.2,0.1l0,0l0,0c-0.1,0.1-0.3,0.1-0.4,0.2l0,0l0,0c-0.2,0.1-0.4,0.1-0.7,0.2l0,0
		l0,0C139.7-145.4,139.4-145.3,139.1-145.3z M136.7-149.8h3.7l0,0c0-0.2,0-0.5-0.1-0.7l0,0l0,0c-0.1-0.2-0.2-0.5-0.3-0.7l0,0l0,0
		c-0.1-0.2-0.3-0.3-0.6-0.5l0,0l0,0c-0.2-0.1-0.5-0.2-0.9-0.2l0,0l0,0c-0.3,0-0.5,0.1-0.8,0.2l0,0l0,0c-0.2,0.1-0.4,0.3-0.6,0.5l0,0
		l0,0c-0.2,0.2-0.3,0.4-0.4,0.7l0,0l0,0C136.7-150.2,136.7-150,136.7-149.8L136.7-149.8z M147.2-152.8L147.2-152.8L147.2-152.8
		c0.9,0,1.6,0.3,2,0.8l0,0l0,0c0.4,0.5,0.7,1.3,0.7,2.4l0,0v4.1h-1.3v-3.8l0,0c0-0.8-0.1-1.5-0.3-1.9l0,0l0,0
		c-0.2-0.4-0.6-0.6-1.1-0.6l0,0l0,0c-0.4,0-0.7,0.1-1,0.2l0,0l0,0c-0.3,0.1-0.5,0.3-0.7,0.6l0,0l0,0c-0.2,0.3-0.3,0.6-0.4,0.9l0,0
		l0,0c-0.1,0.4-0.1,0.8-0.1,1.2l0,0v3.3h-1.3v-7.1h1.1l0.2,1.1l0,0c0.2-0.4,0.6-0.7,1-0.9l0,0l0,0
		C146.3-152.7,146.7-152.8,147.2-152.8z M153.6-152.6v7.1h-1.3v-7.1H153.6z M153.8-154.3L153.8-154.3L153.8-154.3
		c0,0.2-0.1,0.5-0.2,0.6l0,0l0,0c-0.2,0.2-0.4,0.2-0.6,0.2l0,0l0,0c-0.2,0-0.4-0.1-0.6-0.2l0,0l0,0c-0.2-0.2-0.2-0.4-0.2-0.6l0,0
		l0,0c0-0.2,0.1-0.4,0.2-0.6l0,0l0,0c0.2-0.2,0.4-0.2,0.6-0.2l0,0l0,0c0.2,0,0.4,0.1,0.6,0.2l0,0l0,0
		C153.7-154.8,153.8-154.6,153.8-154.3z M159.7-152.8L159.7-152.8L159.7-152.8c0.9,0,1.6,0.3,2,0.8l0,0l0,0c0.4,0.5,0.6,1.3,0.6,2.4
		l0,0v4.1h-1.3v-3.8l0,0c0-0.8-0.1-1.5-0.3-1.9l0,0l0,0c-0.2-0.4-0.6-0.6-1.1-0.6l0,0l0,0c-0.4,0-0.7,0.1-1,0.2l0,0l0,0
		c-0.3,0.1-0.5,0.3-0.7,0.6l0,0l0,0c-0.2,0.3-0.3,0.6-0.4,0.9l0,0l0,0c-0.1,0.4-0.1,0.8-0.1,1.2l0,0v3.3h-1.3v-7.1h1.1l0.2,1.1l0,0
		c0.2-0.4,0.6-0.7,1-0.9l0,0l0,0C158.8-152.7,159.2-152.8,159.7-152.8z M169.8-152.6h1.1v6.1l0,0c0,0.5-0.1,1-0.2,1.4l0,0l0,0
		c-0.1,0.4-0.3,0.8-0.6,1.1l0,0l0,0c-0.3,0.3-0.7,0.6-1.2,0.7l0,0l0,0c-0.5,0.2-1.1,0.3-1.8,0.3l0,0l0,0c-0.3,0-0.6,0-0.8-0.1l0,0
		l0,0c-0.3,0-0.5-0.1-0.7-0.2l0,0l0,0c-0.2-0.1-0.5-0.2-0.7-0.3l0,0l-0.2-1.2l0,0c0.2,0.1,0.4,0.2,0.7,0.3l0,0l0,0
		c0.2,0.1,0.5,0.2,0.8,0.2l0,0l0,0c0.3,0.1,0.6,0.1,1,0.1l0,0l0,0c0.6,0,1.1-0.1,1.5-0.3l0,0l0,0c0.3-0.2,0.6-0.4,0.8-0.6l0,0l0,0
		c0.2-0.3,0.2-0.5,0.3-0.8l0,0l0,0c0-0.3,0-0.6,0-0.8l0,0l0,0c-0.3,0.4-0.6,0.7-1,0.9l0,0l0,0c-0.4,0.2-0.8,0.3-1.3,0.3l0,0l0,0
		c-0.4,0-0.8-0.1-1.2-0.2l0,0l0,0c-0.4-0.2-0.7-0.4-1-0.7l0,0l0,0c-0.3-0.3-0.5-0.7-0.7-1.1l0,0l0,0c-0.2-0.5-0.3-1-0.3-1.6l0,0l0,0
		c0-0.6,0.1-1.1,0.3-1.6l0,0l0,0c0.2-0.5,0.4-0.8,0.7-1.1l0,0l0,0c0.3-0.3,0.6-0.5,1-0.7l0,0l0,0c0.4-0.2,0.8-0.2,1.2-0.2l0,0l0,0
		c0.5,0,0.8,0.1,1.1,0.2l0,0l0,0c0.3,0.1,0.5,0.3,0.7,0.4l0,0l0,0c0.2,0.2,0.3,0.4,0.4,0.6l0,0L169.8-152.6z M167.6-146.6
		L167.6-146.6L167.6-146.6c0.3,0,0.6-0.1,0.8-0.2l0,0l0,0c0.3-0.1,0.5-0.3,0.6-0.6l0,0l0,0c0.2-0.2,0.3-0.5,0.4-0.8l0,0l0,0
		c0.1-0.3,0.1-0.6,0.1-1l0,0l0,0c0-0.4,0-0.7-0.1-1l0,0l0,0c-0.1-0.3-0.2-0.6-0.4-0.8l0,0l0,0c-0.2-0.2-0.4-0.4-0.6-0.6l0,0l0,0
		c-0.3-0.1-0.5-0.2-0.8-0.2l0,0l0,0c-0.3,0-0.6,0.1-0.8,0.2l0,0l0,0c-0.2,0.1-0.5,0.3-0.6,0.6l0,0l0,0c-0.2,0.2-0.3,0.5-0.4,0.8l0,0
		l0,0c-0.1,0.3-0.1,0.6-0.1,1l0,0l0,0c0,0.4,0,0.7,0.1,1l0,0l0,0c0.1,0.3,0.2,0.6,0.4,0.8l0,0l0,0c0.2,0.2,0.4,0.4,0.6,0.6l0,0l0,0
		C167-146.6,167.3-146.6,167.6-146.6z"/>
</g>
</svg>
