<svg data-v-fde0c5aa="" xmlns="http://www.w3.org/2000/svg" viewBox="0 0 300 300" class="font"><!----><defs data-v-fde0c5aa=""><!----></defs><rect data-v-fde0c5aa="" fill="#5B359D" x="0" y="0" width="300px" height="300px" class="logo-background-square"></rect><defs data-v-fde0c5aa=""><!----></defs><g data-v-fde0c5aa="" id="e83568ec-5cd9-4fc4-a5bb-3e948e4dbc9d" fill="#9563C5" transform="matrix(4.10447743667158,0,0,4.10447743667158,39.302238767264974,126.4608220866194)"><path d="M9.32 10.50L7.98 10.50L6.96 8.15L2.55 8.15L1.53 10.50L0.17 10.50L3.99 1.36L5.47 1.36L9.32 10.50ZM4.69 2.69L3.04 6.97L6.45 6.97L4.69 2.69ZM14.25 3.19L14.25 3.19L14.25 3.19Q15.65 3.19 16.30 4.02L16.30 4.02L16.30 4.02Q16.94 4.84 16.94 6.37L16.94 6.37L16.94 10.50L15.61 10.50L15.61 6.73L15.61 6.73Q15.61 5.46 15.29 4.86L15.29 4.86L15.29 4.86Q14.97 4.26 14.15 4.26L14.15 4.26L14.15 4.26Q13.59 4.26 13.18 4.47L13.18 4.47L13.18 4.47Q12.77 4.68 12.49 5.06L12.49 5.06L12.49 5.06Q12.21 5.45 12.07 5.99L12.07 5.99L12.07 5.99Q11.93 6.52 11.93 7.18L11.93 7.18L11.93 10.50L10.61 10.50L10.61 3.36L11.72 3.36L11.93 4.49L11.93 4.49Q12.26 3.92 12.91 3.56L12.91 3.56L12.91 3.56Q13.55 3.19 14.25 3.19ZM23.04 5.12L21.15 5.12L21.15 8.46L21.15 8.46Q21.15 9.59 22.12 9.59L22.12 9.59L22.12 9.59Q22.53 9.59 22.95 9.38L22.95 9.38L22.95 10.40L22.95 10.40Q22.37 10.67 21.73 10.67L21.73 10.67L21.73 10.67Q20.80 10.67 20.29 10.14L20.29 10.14L20.29 10.14Q19.78 9.62 19.78 8.60L19.78 8.60L19.78 5.12L18.51 5.12L18.51 4.05L19.78 4.05L19.78 1.95L21.15 1.62L21.15 4.05L23.04 4.05L23.04 5.12ZM33.85 9.27L33.85 10.50L28.71 10.50L28.71 1.34L30.11 1.34L30.11 9.27L33.85 9.27ZM36.79 3.36L36.79 10.50L35.48 10.50L35.48 3.36L36.79 3.36ZM36.97 1.65L36.97 1.65L36.97 1.65Q36.97 2.02 36.72 2.27L36.72 2.27L36.72 2.27Q36.47 2.52 36.12 2.52L36.12 2.52L36.12 2.52Q35.76 2.52 35.50 2.27L35.50 2.27L35.50 2.27Q35.25 2.02 35.25 1.65L35.25 1.65L35.25 1.65Q35.25 1.30 35.50 1.05L35.50 1.05L35.50 1.05Q35.76 0.80 36.12 0.80L36.12 0.80L36.12 0.80Q36.47 0.80 36.72 1.05L36.72 1.05L36.72 1.05Q36.97 1.30 36.97 1.65ZM42.85 3.19L42.85 3.19L42.85 3.19Q44.25 3.19 44.90 4.02L44.90 4.02L44.90 4.02Q45.54 4.84 45.54 6.37L45.54 6.37L45.54 10.50L44.21 10.50L44.21 6.73L44.21 6.73Q44.21 5.46 43.89 4.86L43.89 4.86L43.89 4.86Q43.57 4.26 42.76 4.26L42.76 4.26L42.76 4.26Q42.20 4.26 41.78 4.47L41.78 4.47L41.78 4.47Q41.37 4.68 41.09 5.06L41.09 5.06L41.09 5.06Q40.81 5.45 40.67 5.99L40.67 5.99L40.67 5.99Q40.53 6.52 40.53 7.18L40.53 7.18L40.53 10.50L39.21 10.50L39.21 3.36L40.32 3.36L40.53 4.49L40.53 4.49Q40.87 3.92 41.51 3.56L41.51 3.56L41.51 3.56Q42.15 3.19 42.85 3.19ZM53.68 3.36L51.17 6.52L53.77 10.50L52.15 10.50L50.18 7.21L49.10 7.21L49.10 10.50L47.78 10.50L47.78 1.62L49.10 1.62L49.10 5.81L50.18 5.81L52.16 3.36L53.68 3.36Z"></path></g><!----><!----></svg>